<svg width="420" height="422" viewBox="0 0 420 422" fill="none" xmlns="http://www.w3.org/2000/svg"><g clip-path="url(#a)"><path d="m40.39 355.498-3.7-14.614a189.23 189.23 0 0 0-20.097-7.224l-.467 6.792-1.894-7.483C5.762 330.544 0 329.477 0 329.477s7.781 29.649 24.108 52.316l19.022 3.348-14.778 2.134a76.654 76.654 0 0 0 6.608 7.017c23.748 22.082 50.198 32.213 59.079 22.629 8.88-9.585-3.172-35.255-26.92-57.334-7.361-6.846-16.61-12.339-25.867-16.664l-.862 12.575Z" fill="#F2F2F2"/><path d="m75.567 339.624 4.375-14.425a189.657 189.657 0 0 0-13.476-16.591l-3.905 5.572 2.24-7.386c-6-6.46-10.382-10.357-10.382-10.357s-8.636 29.411-6.358 57.269l14.557 12.715-13.754-5.825a76.902 76.902 0 0 0 2.037 9.43c8.935 31.2 26.35 53.569 38.898 49.963 12.547-3.606 15.476-31.822 6.541-63.022-2.77-9.672-7.853-19.163-13.546-27.659l-7.227 10.316Z" fill="#F2F2F2"/><path d="M293.074 99.972h-2.308V36.65a36.699 36.699 0 0 0-10.715-25.915 36.59 36.59 0 0 0-11.87-7.945 36.525 36.525 0 0 0-14-2.79H120.257a36.555 36.555 0 0 0-25.87 10.735A36.684 36.684 0 0 0 83.67 36.65v347.394c0 4.813.946 9.579 2.785 14.026a36.657 36.657 0 0 0 7.93 11.89 36.587 36.587 0 0 0 11.87 7.945 36.527 36.527 0 0 0 14.001 2.79H254.18a36.556 36.556 0 0 0 25.869-10.735 36.687 36.687 0 0 0 10.716-25.916V145.046h2.307l.001-45.074Z" fill="#2F2E41"/><path d="M255.657 9.532h-17.48a13.02 13.02 0 0 1-1.246 12.165 12.964 12.964 0 0 1-10.774 5.75h-76.723a12.984 12.984 0 0 1-10.773-5.75 13.019 13.019 0 0 1-1.246-12.165h-16.327a27.3 27.3 0 0 0-19.32 8.016 27.396 27.396 0 0 0-8.002 19.354V383.79a27.397 27.397 0 0 0 8.002 19.354 27.298 27.298 0 0 0 19.32 8.016h134.569a27.294 27.294 0 0 0 19.319-8.016 27.396 27.396 0 0 0 8.003-19.354V36.901c0-7.259-2.879-14.22-8.003-19.353a27.297 27.297 0 0 0-19.319-8.016Z" fill="#fff"/><path d="M171.225 147.715a13.814 13.814 0 0 1 6.896-11.961 13.77 13.77 0 0 0-18.835 5.054 13.831 13.831 0 0 0 0 13.812 13.81 13.81 0 0 0 5.047 5.055 13.772 13.772 0 0 0 13.788-.001 13.79 13.79 0 0 1-5.049-5.054 13.817 13.817 0 0 1-1.847-6.905Z" fill="#CCC"/><path d="M188.556 147.715c0-2.425.637-4.807 1.848-6.907a13.79 13.79 0 0 1 5.049-5.054 13.773 13.773 0 0 0-18.835 5.054 13.831 13.831 0 0 0 0 13.812 13.802 13.802 0 0 0 5.047 5.055 13.772 13.772 0 0 0 13.788-.001 13.818 13.818 0 0 1-6.897-11.959Z" fill="#CCC"/><path d="M205.495 161.525c7.614 0 13.786-6.183 13.786-13.811 0-7.627-6.172-13.811-13.786-13.811s-13.787 6.184-13.787 13.811c0 7.628 6.173 13.811 13.787 13.811Z" fill="#F54848"/><path d="M228.536 190.851h-80.352a2.883 2.883 0 0 1-2.04-.847 2.902 2.902 0 0 1-.846-2.043v-80.494a2.892 2.892 0 0 1 2.886-2.89h80.352a2.89 2.89 0 0 1 2.885 2.89v80.494a2.898 2.898 0 0 1-.846 2.043 2.88 2.88 0 0 1-2.039.847Zm-80.352-85.117a1.731 1.731 0 0 0-1.731 1.734v80.494a1.737 1.737 0 0 0 1.731 1.734h80.352a1.732 1.732 0 0 0 1.731-1.734v-80.494a1.738 1.738 0 0 0-1.731-1.734h-80.352Zm98.293 146.82H123.241v1.156h123.236v-1.156Z" fill="#CCC"/><path d="M127.133 245.335a3.895 3.895 0 0 0 3.892-3.899 3.895 3.895 0 0 0-3.892-3.899 3.896 3.896 0 0 0-3.892 3.899 3.896 3.896 0 0 0 3.892 3.899Z" fill="#F54848"/><path d="M246.477 291.539H123.241v1.156h123.236v-1.156Z" fill="#CCC"/><path d="M127.133 284.32a3.895 3.895 0 0 0 3.892-3.899 3.895 3.895 0 0 0-3.892-3.898 3.895 3.895 0 0 0-3.892 3.898 3.895 3.895 0 0 0 3.892 3.899Zm117.089 51.613h-38.946a2.538 2.538 0 0 1-2.537-2.542v-13.674a2.544 2.544 0 0 1 2.537-2.542h38.946a2.54 2.54 0 0 1 2.537 2.542v13.674a2.54 2.54 0 0 1-2.537 2.542Zm-104.394-90.598a3.895 3.895 0 0 0 3.892-3.899 3.895 3.895 0 0 0-3.892-3.899 3.896 3.896 0 0 0-3.892 3.899 3.896 3.896 0 0 0 3.892 3.899Zm12.695 0a3.895 3.895 0 0 0 3.892-3.899 3.895 3.895 0 0 0-3.892-3.899 3.896 3.896 0 0 0-3.892 3.899 3.896 3.896 0 0 0 3.892 3.899Zm-12.695 38.985a3.895 3.895 0 0 0 3.892-3.899 3.895 3.895 0 0 0-3.892-3.898 3.895 3.895 0 0 0-3.892 3.898 3.895 3.895 0 0 0 3.892 3.899Zm12.695 0a3.895 3.895 0 0 0 3.892-3.899 3.895 3.895 0 0 0-3.892-3.898 3.895 3.895 0 0 0-3.892 3.898 3.895 3.895 0 0 0 3.892 3.899Z" fill="#F54848"/><path d="M418.431 422H13.578c-.867 0-1.569-.308-1.569-.688 0-.38.702-.689 1.57-.689H418.43c.866 0 1.569.309 1.569.689 0 .38-.703.688-1.569.688Z" fill="#3F3D56"/><path d="M318.406 276.481c.277.127.543.276.796.445l25.291-10.814.902-6.674 10.106-.061-.597 15.306-33.381 8.844c-.071.232-.155.46-.253.682a5.767 5.767 0 0 1-10.635-.441 5.787 5.787 0 0 1 1.466-6.233 5.765 5.765 0 0 1 6.305-1.054Zm40.77 138.709h-6.913l-3.289-26.712 10.203.001-.001 26.711Z" fill="#FFB8B8"/><path d="M347.325 413.211h13.332v8.409h-21.726c0-2.23.884-4.369 2.458-5.946a8.39 8.39 0 0 1 5.936-2.463Z" fill="#2F2E41"/><path d="m386.062 413.233-6.88.679-5.888-26.259 10.154-1.002 2.614 26.582Z" fill="#FFB8B8"/><path d="m374.074 412.428 13.268-1.309.823 8.368-21.622 2.134a8.428 8.428 0 0 1 1.865-6.159 8.387 8.387 0 0 1 5.666-3.034Z" fill="#2F2E41"/><path d="M361.1 231.107c7.649 0 13.85-6.211 13.85-13.874 0-7.662-6.201-13.873-13.85-13.873-7.648 0-13.849 6.211-13.849 13.873 0 7.663 6.201 13.874 13.849 13.874Z" fill="#FFB8B8"/><path d="M350.718 409.788a2.517 2.517 0 0 1-2.489-2.088c-3.578-19.898-15.274-84.96-15.554-86.762a.866.866 0 0 1-.009-.125v-4.851c0-.177.055-.349.158-.493l1.545-2.167a.819.819 0 0 1 .644-.353c8.809-.414 37.658-1.627 39.052.118 1.4 1.753.905 7.064.792 8.111l.005.11 12.961 83.032a2.55 2.55 0 0 1-2.094 2.901l-8.096 1.336a2.549 2.549 0 0 1-2.833-1.747c-2.504-8.015-10.9-34.976-13.809-45.408a.284.284 0 0 0-.117-.161.277.277 0 0 0-.194-.043.28.28 0 0 0-.242.282c.145 9.945.497 35.318.618 44.081l.013.944a2.547 2.547 0 0 1-2.308 2.562l-7.806.711a2.7 2.7 0 0 1-.237.01Z" fill="#2F2E41"/><path d="M352.311 236.562c-2.417 1.44-3.863 4.085-4.693 6.776a64.26 64.26 0 0 0-2.754 15.342l-.877 15.59-10.858 41.331c9.41 7.977 14.839 6.164 27.506-.36 12.668-6.525 14.115 2.175 14.115 2.175l2.533-35.168 3.619-38.429a16.95 16.95 0 0 0-2.741-2.64 27.96 27.96 0 0 0-23.932-5.082l-1.918.465Z" fill="#F54848"/><path d="M348.784 284.829c.292.11.575.243.846.397l25.007-12.538.415-6.793 10.316-.713.553 15.485-33.419 11.071a5.917 5.917 0 0 1-8.454 3.935 5.927 5.927 0 0 1-3.192-5.933 5.935 5.935 0 0 1 1.412-3.234 5.915 5.915 0 0 1 6.516-1.677Z" fill="#FFB8B8"/><path d="M380.721 243.995c6.153 2.175 7.237 25.743 7.237 25.743-7.238-3.988-15.925 2.538-15.925 2.538s-1.809-6.164-3.981-14.14a13.877 13.877 0 0 1 2.895-13.052s3.622-3.266 9.774-1.089Z" fill="#F54848"/><path d="M373.518 220.902c-1.725-1.383-4.079 1.131-4.079 1.131l-1.381-12.446s-8.628 1.035-14.15-.345c-5.521-1.381-6.384 5.013-6.384 5.013a44.428 44.428 0 0 1-.172-7.779c.344-3.111 4.831-6.223 12.768-8.297 7.938-2.075 12.079 6.914 12.079 6.914 5.522 2.766 3.045 17.192 1.319 15.809Z" fill="#2F2E41"/></g><defs><clipPath id="a"><path fill="#fff" d="M0 0h420v422H0z"/></clipPath></defs></svg>