<svg width="341" height="121" viewBox="0 0 341 121" fill="none" xmlns="http://www.w3.org/2000/svg"><ellipse cx="78" cy="16.5" rx="17" ry="16.5" fill="#F54848"/><path d="M15 85h9m14 0h10m13 0h9" stroke="#1E1E28" stroke-width="8" stroke-linecap="round"/><path fill-rule="evenodd" clip-rule="evenodd" d="M0 34c0-13.255 10.745-24 24-24h30.323a4 4 0 0 1 0 8H24c-8.837 0-16 7.163-16 16v63c0 8.837 7.163 16 16 16h38c8.837 0 16-7.163 16-16V40.5a4 4 0 0 1 8 0V82a3 3 0 1 0 0 6v9c0 13.255-10.745 24-24 24H24c-13.255 0-24-10.745-24-24v-9a3 3 0 1 0 0-6V34Z" fill="#1E1E28"/><path d="M132.72 89c-1.12 0-2.04-.34-2.76-1.02-.72-.72-1.08-1.6-1.08-2.64v-34.8h7.8v34.8c0 1.04-.38 1.92-1.14 2.64-.72.68-1.66 1.02-2.82 1.02Zm-13.26-35.1c-1.04 0-1.92-.32-2.64-.96-.68-.64-1.02-1.48-1.02-2.52s.34-1.86 1.02-2.46c.72-.64 1.6-.96 2.64-.96h26.64c1.04 0 1.9.32 2.58.96.72.64 1.08 1.48 1.08 2.52s-.36 1.88-1.08 2.52c-.68.6-1.54.9-2.58.9h-26.64Zm42.779 31.44c0 1.04-.34 1.92-1.02 2.64-.68.68-1.54 1.02-2.58 1.02s-1.9-.34-2.58-1.02c-.68-.72-1.02-1.6-1.02-2.64V60.56c0-1.04.34-1.9 1.02-2.58.68-.72 1.54-1.08 2.58-1.08s1.9.36 2.58 1.08c.68.68 1.02 1.54 1.02 2.58v24.78ZM158.579 53c-1.36 0-2.32-.22-2.88-.66-.56-.44-.84-1.22-.84-2.34v-1.14c0-1.16.3-1.94.9-2.34.64-.44 1.6-.66 2.88-.66 1.4 0 2.38.22 2.94.66.56.44.84 1.22.84 2.34V50c0 1.16-.3 1.96-.9 2.4-.6.4-1.58.6-2.94.6Zm25.339 3.3c2.28 0 4.26.24 5.94.72 1.72.48 3.04 1.16 3.96 2.04.96.84 1.44 1.86 1.44 3.06 0 .8-.24 1.56-.72 2.28-.48.68-1.18 1.02-2.1 1.02-.64 0-1.18-.08-1.62-.24-.4-.2-.76-.44-1.08-.72-.32-.28-.7-.54-1.14-.78-.4-.24-1.02-.42-1.86-.54-.8-.16-1.4-.24-1.8-.24-2.04 0-3.78.44-5.22 1.32-1.4.88-2.48 2.08-3.24 3.6-.76 1.48-1.14 3.2-1.14 5.16 0 1.92.38 3.64 1.14 5.16.8 1.48 1.88 2.66 3.24 3.54 1.4.88 3 1.32 4.8 1.32 1 0 1.86-.06 2.58-.18s1.32-.3 1.8-.54c.56-.32 1.06-.66 1.5-1.02.44-.36 1.1-.54 1.98-.54 1.04 0 1.84.34 2.4 1.02.56.64.84 1.44.84 2.4 0 1-.56 1.92-1.68 2.76-1.12.8-2.6 1.46-4.44 1.98-1.8.48-3.76.72-5.88.72-3.16 0-5.9-.72-8.22-2.16-2.32-1.48-4.12-3.48-5.4-6-1.24-2.52-1.86-5.34-1.86-8.46 0-3.28.66-6.16 1.98-8.64 1.36-2.52 3.22-4.48 5.58-5.88 2.4-1.44 5.14-2.16 8.22-2.16ZM205.01 89c-1.04 0-1.9-.34-2.58-1.02-.68-.72-1.02-1.6-1.02-2.64V48.26c0-1.04.34-1.9 1.02-2.58.68-.72 1.54-1.08 2.58-1.08s1.9.36 2.58 1.08c.68.68 1.02 1.54 1.02 2.58v37.08c0 1.04-.34 1.92-1.02 2.64-.68.68-1.54 1.02-2.58 1.02Zm19.08-32.1c.92 0 1.72.38 2.4 1.14.68.76 1.02 1.5 1.02 2.22 0 .96-.48 1.86-1.44 2.7l-18.06 16.62-.3-8.28 13.74-13.26c.76-.76 1.64-1.14 2.64-1.14Zm.9 32.04c-1.04 0-1.92-.4-2.64-1.2l-11.1-11.76 5.46-5.04 10.8 11.76c.76.8 1.14 1.7 1.14 2.7 0 1.04-.42 1.9-1.26 2.58-.8.64-1.6.96-2.4.96ZM239.23 47h20.1c1.04 0 1.9.34 2.58 1.02.72.64 1.08 1.48 1.08 2.52 0 1-.36 1.82-1.08 2.46-.68.6-1.54.9-2.58.9h-16.8l.54-1.02v11.7l-.48-.48h14.04c1.04 0 1.9.34 2.58 1.02.72.64 1.08 1.48 1.08 2.52 0 1-.36 1.82-1.08 2.46-.68.6-1.54.9-2.58.9h-13.86l.3-.48v12.12l-.48-.54h16.74c1.04 0 1.9.36 2.58 1.08.72.68 1.08 1.48 1.08 2.4 0 1-.36 1.82-1.08 2.46-.68.64-1.54.96-2.58.96h-20.1c-1.04 0-1.92-.34-2.64-1.02-.68-.72-1.02-1.6-1.02-2.64V50.66c0-1.04.34-1.9 1.02-2.58.72-.72 1.6-1.08 2.64-1.08Zm30.436 10.5h14.22c.96 0 1.76.32 2.4.96.64.64.96 1.44.96 2.4 0 .92-.32 1.7-.96 2.34-.64.6-1.44.9-2.4.9h-14.22c-.96 0-1.76-.32-2.4-.96-.64-.64-.96-1.44-.96-2.4 0-.92.32-1.68.96-2.28.64-.64 1.44-.96 2.4-.96Zm6.42-7.5c1.04 0 1.88.36 2.52 1.08.68.68 1.02 1.54 1.02 2.58v26.7c0 .56.1 1.02.3 1.38.24.36.54.62.9.78.4.16.82.24 1.26.24.48 0 .92-.08 1.32-.24.4-.2.86-.3 1.38-.3.56 0 1.06.26 1.5.78.48.52.72 1.24.72 2.16 0 1.12-.62 2.04-1.86 2.76-1.2.72-2.5 1.08-3.9 1.08-.84 0-1.78-.06-2.82-.18-1-.16-1.96-.5-2.88-1.02-.88-.56-1.62-1.4-2.22-2.52-.6-1.12-.9-2.66-.9-4.62v-27c0-1.04.34-1.9 1.02-2.58.72-.72 1.6-1.08 2.64-1.08Zm34.631 6.3c2.88 0 5.06.62 6.54 1.86 1.52 1.24 2.56 2.9 3.12 4.98.56 2.04.84 4.32.84 6.84v15.36c0 1.04-.34 1.92-1.02 2.64-.68.68-1.54 1.02-2.58 1.02s-1.9-.34-2.58-1.02c-.68-.72-1.02-1.6-1.02-2.64V69.98c0-1.32-.16-2.5-.48-3.54-.32-1.08-.9-1.94-1.74-2.58-.84-.64-2.04-.96-3.6-.96-1.52 0-2.82.32-3.9.96-1.08.64-1.9 1.5-2.46 2.58-.52 1.04-.78 2.22-.78 3.54v15.36c0 1.04-.34 1.92-1.02 2.64-.68.68-1.54 1.02-2.58 1.02s-1.9-.34-2.58-1.02c-.68-.72-1.02-1.6-1.02-2.64V48.26c0-1.04.34-1.9 1.02-2.58.68-.72 1.54-1.08 2.58-1.08s1.9.36 2.58 1.08c.68.68 1.02 1.54 1.02 2.58v14.88l-.9-.18c.36-.68.86-1.4 1.5-2.16.64-.8 1.42-1.54 2.34-2.22.92-.68 1.94-1.22 3.06-1.62 1.12-.44 2.34-.66 3.66-.66Z" fill="#000"/></svg>