<svg width="216" height="42" viewBox="0 0 216 42" fill="none" xmlns="http://www.w3.org/2000/svg"><g clip-path="url(#a)" fill="#fff"><path d="M37.437 41.184V22.096h3.46v1.125a5.553 5.553 0 0 1 1.77-.982 6.341 6.341 0 0 1 2.024-.326 6.51 6.51 0 0 1 2.652.548 6.92 6.92 0 0 1 2.168 1.492 6.87 6.87 0 0 1 1.448 2.221c.354.874.533 1.811.525 2.756a7.009 7.009 0 0 1-.538 2.748 7.011 7.011 0 0 1-1.46 2.222 6.633 6.633 0 0 1-2.194 1.477 6.86 6.86 0 0 1-2.703.536 6.77 6.77 0 0 1-1.916-.274 6.429 6.429 0 0 1-1.732-.797v6.353l-3.504-.011Zm6.69-16.213a4.71 4.71 0 0 0-1.77.328 3.886 3.886 0 0 0-1.41.954v5.362c.4.398.876.71 1.397.914a4.687 4.687 0 0 0 1.783.339 3.728 3.728 0 0 0 1.497-.279 3.789 3.789 0 0 0 1.27-.857 4.041 4.041 0 0 0 1.127-2.814 4.04 4.04 0 0 0-1.14-2.809 3.8 3.8 0 0 0-1.264-.855 3.74 3.74 0 0 0-1.49-.283Zm21.796 9.122a7.822 7.822 0 0 1-5.377 1.96 7.198 7.198 0 0 1-2.818-.551 7.107 7.107 0 0 1-2.27-1.494 6.937 6.937 0 0 1-1.527-2.29 7.101 7.101 0 0 1-.53-2.725 7.311 7.311 0 0 1 .523-2.765 6.927 6.927 0 0 1 2.513-3.147 6.64 6.64 0 0 1 3.795-1.165 6.13 6.13 0 0 1 2.613.546 6.53 6.53 0 0 1 2.091 1.535 7.034 7.034 0 0 1 1.376 2.319c.337.935.506 1.925.498 2.923v.942h-9.89a3.82 3.82 0 0 0 1.382 2.077c.691.53 1.534.807 2.396.788a4.545 4.545 0 0 0 1.63-.29 3.677 3.677 0 0 0 1.302-.811l2.293 2.148Zm-5.76-9.225a3.055 3.055 0 0 0-2.065.747 3.866 3.866 0 0 0-1.198 2.004h6.5a3.965 3.965 0 0 0-1.212-1.978 2.985 2.985 0 0 0-2.032-.773h.006Zm9.202 16.318V22.098h3.46v1.125a5.552 5.552 0 0 1 1.769-.981 6.34 6.34 0 0 1 2.025-.326 6.523 6.523 0 0 1 2.654.547c.808.353 1.541.86 2.164 1.492a6.837 6.837 0 0 1 1.447 2.222 7.15 7.15 0 0 1 .528 2.756 7.014 7.014 0 0 1-.538 2.747 7.008 7.008 0 0 1-1.461 2.222 6.643 6.643 0 0 1-2.19 1.477 6.87 6.87 0 0 1-2.707.536 6.773 6.773 0 0 1-1.916-.273 6.434 6.434 0 0 1-1.73-.798v6.353l-3.505-.01Zm6.69-16.212a4.693 4.693 0 0 0-1.768.328 3.891 3.891 0 0 0-1.411.953v5.362c.4.399.876.71 1.398.915a4.666 4.666 0 0 0 1.78.338 3.73 3.73 0 0 0 1.498-.278 3.789 3.789 0 0 0 1.27-.857 4.034 4.034 0 0 0 1.129-2.815 4.033 4.033 0 0 0-1.142-2.808c-.36-.369-.79-.66-1.264-.855a3.74 3.74 0 0 0-1.49-.283Zm9.272 16.221V22.096h3.62v1.126a5.886 5.886 0 0 1 1.849-.983 6.9 6.9 0 0 1 2.116-.326 7.068 7.068 0 0 1 2.773.548c.845.353 1.614.86 2.265 1.493a6.914 6.914 0 0 1 2.063 4.98 6.789 6.789 0 0 1-.563 2.75 7.067 7.067 0 0 1-1.524 2.211 7.002 7.002 0 0 1-2.292 1.478 7.445 7.445 0 0 1-2.827.537 7.368 7.368 0 0 1-2.003-.274 6.87 6.87 0 0 1-1.809-.797v6.356h-3.668Zm6.995-16.222a5.114 5.114 0 0 0-1.85.328 4.074 4.074 0 0 0-1.472.954v5.365c.417.4.914.711 1.46.915a5.09 5.09 0 0 0 1.862.34 4.041 4.041 0 0 0 1.566-.279 3.946 3.946 0 0 0 2.507-3.674 3.947 3.947 0 0 0-1.193-2.81 3.977 3.977 0 0 0-1.321-.856 4.053 4.053 0 0 0-1.559-.283Zm22.082 9.121a8.434 8.434 0 0 1-5.636 1.958 7.846 7.846 0 0 1-2.95-.55 7.437 7.437 0 0 1-2.378-1.493 6.833 6.833 0 0 1-1.575-2.24 6.822 6.822 0 0 1-.575-2.774 7.02 7.02 0 0 1 .548-2.764 6.84 6.84 0 0 1 1.51-2.257 6.973 6.973 0 0 1 2.281-1.508 7.285 7.285 0 0 1 2.819-.55 6.686 6.686 0 0 1 2.737.563 6.81 6.81 0 0 1 2.19 1.535 6.941 6.941 0 0 1 1.441 2.317 8.05 8.05 0 0 1 .522 2.923v.942h-10.361a3.81 3.81 0 0 0 1.442 2.07 4.12 4.12 0 0 0 2.511.788 4.974 4.974 0 0 0 1.707-.29c.507-.174.971-.45 1.362-.812l2.405 2.142Zm-6.033-9.223a3.296 3.296 0 0 0-2.165.747 3.839 3.839 0 0 0-1.254 2.004h6.81a3.957 3.957 0 0 0-1.269-1.978 3.213 3.213 0 0 0-2.122-.773Zm8.882 10.533V22.221h3.678v1.441a4.404 4.404 0 0 1 1.627-1.303c.657-.3 1.38-.451 2.11-.443.299.012.597.042.893.088.222.035.436.106.632.21v3.048a3.981 3.981 0 0 0-.893-.267 5.53 5.53 0 0 0-.996-.088 3.957 3.957 0 0 0-1.976.506 3.541 3.541 0 0 0-1.411 1.471v8.528l-3.664-.008Zm17.126-1.083c.713 0 1.419-.141 2.073-.416a6.197 6.197 0 0 0 1.857-1.22l1.24 1.293a7.99 7.99 0 0 1-2.425 1.531 7.362 7.362 0 0 1-2.799.545 6.994 6.994 0 0 1-2.682-.52 6.562 6.562 0 0 1-2.181-1.426 6.773 6.773 0 0 1-1.992-4.8c-.006-.905.176-1.8.536-2.635a6.883 6.883 0 0 1 1.456-2.143 6.769 6.769 0 0 1 2.181-1.44 6.88 6.88 0 0 1 2.682-.532 7.723 7.723 0 0 1 2.84.545 7.84 7.84 0 0 1 2.438 1.51l-1.267 1.402a5.762 5.762 0 0 0-1.857-1.246 5.427 5.427 0 0 0-2.127-.441 4.888 4.888 0 0 0-3.503 1.452c-.447.46-.799.998-1.038 1.585a5.244 5.244 0 0 0 .014 3.932 4.86 4.86 0 0 0 2.615 2.634 4.9 4.9 0 0 0 1.939.39Zm5.863-5.022a6.69 6.69 0 0 1 .525-2.64c.331-.8.817-1.53 1.429-2.149a6.705 6.705 0 0 1 2.176-1.445 6.775 6.775 0 0 1 5.146 0 6.677 6.677 0 0 1 2.177 1.445 6.67 6.67 0 0 1 1.43 2.15c.353.836.53 1.733.525 2.639a6.76 6.76 0 0 1-.525 2.665 6.672 6.672 0 0 1-1.43 2.15 6.632 6.632 0 0 1-4.74 1.94 6.747 6.747 0 0 1-2.579-.494 6.665 6.665 0 0 1-2.184-1.44 6.686 6.686 0 0 1-1.43-2.15 6.79 6.79 0 0 1-.52-2.671Zm6.711 5.055a4.602 4.602 0 0 0 1.876-.389 4.6 4.6 0 0 0 1.526-1.074 5.054 5.054 0 0 0 1.011-1.604 5.537 5.537 0 0 0 0-3.96 4.943 4.943 0 0 0-1.011-1.592 4.705 4.705 0 0 0-3.402-1.448 4.714 4.714 0 0 0-3.401 1.448 5.089 5.089 0 0 0-1.025 1.593 5.14 5.14 0 0 0-.368 1.971 5.283 5.283 0 0 0 .368 1.98 5.055 5.055 0 0 0 1.01 1.603 4.706 4.706 0 0 0 3.416 1.472Zm8.907 1.436V22.827h2.054v1.517a5.276 5.276 0 0 1 1.923-1.332 6.56 6.56 0 0 1 2.482-.454c1.579 0 2.871.466 3.874 1.397 1.002.931 1.505 2.14 1.505 3.623v8.203h-2.035v-7.805c0-1.139-.353-2.045-1.058-2.719-.706-.673-1.653-1.009-2.843-1.008a4.75 4.75 0 0 0-2.228.525c-.667.35-1.22.858-1.604 1.474v9.549l-2.07-.007Zm15.814-2.94v-8.622h-2.699v-1.665h2.699v-3.36l1.826-.501v3.861h3.776v1.665H173.5v8.128c0 .706.15 1.212.45 1.52.299.307.791.463 1.475.463.315.004.629-.023.938-.08.303-.062.6-.15.887-.264v1.72c-.345.13-.703.217-1.067.26a8.532 8.532 0 0 1-1.136.08c-1.084 0-1.915-.273-2.492-.82-.577-.546-.871-1.34-.881-2.385Zm18.634 1.59a8.578 8.578 0 0 1-2.311 1.212 8.211 8.211 0 0 1-2.632.402 6.897 6.897 0 0 1-2.68-.522 6.592 6.592 0 0 1-2.165-1.433 6.958 6.958 0 0 1-1.839-3.515 6.903 6.903 0 0 1 1.774-6.078 6.348 6.348 0 0 1 2.107-1.444 6.427 6.427 0 0 1 2.513-.504 5.924 5.924 0 0 1 2.469.522 6.023 6.023 0 0 1 1.975 1.433 7.013 7.013 0 0 1 1.315 2.139 7.06 7.06 0 0 1 .49 2.632v.6H180.47a4.926 4.926 0 0 0 1.609 3.206 4.81 4.81 0 0 0 3.354 1.278c.682 0 1.36-.106 2.009-.314a4.628 4.628 0 0 0 1.636-.886l1.23 1.271Zm-5.28-10.194a4.259 4.259 0 0 0-2.972 1.148 4.798 4.798 0 0 0-1.518 2.944h8.847a4.993 4.993 0 0 0-1.494-2.905 3.97 3.97 0 0 0-1.309-.881 4.018 4.018 0 0 0-1.554-.306Zm8.526 11.55V22.827h1.945v1.518a4.97 4.97 0 0 1 1.816-1.333 5.885 5.885 0 0 1 2.342-.454c1.489 0 2.707.466 3.654 1.398.947.931 1.42 2.14 1.422 3.625v8.207h-1.921v-7.81c0-1.139-.333-2.046-.999-2.72-.667-.673-1.562-1.01-2.683-1.008a4.275 4.275 0 0 0-2.116.518 4.043 4.043 0 0 0-1.515 1.476v9.552h-1.945Zm15.793-2.948v-8.62h-2.699v-1.665h2.699v-3.36l1.826-.501v3.86h3.775v1.666h-3.775v8.126c0 .706.149 1.212.448 1.52.302.307.791.463 1.478.463.313.004.626-.023.935-.08a5.18 5.18 0 0 0 .89-.264v1.72a4.72 4.72 0 0 1-1.064.263 8.506 8.506 0 0 1-1.138.079c-1.084 0-1.915-.273-2.491-.82-.578-.545-.872-1.341-.884-2.387ZM21.054 23.086a1.524 1.524 0 0 0 1.017-1.443v-1.327c0-.406-.16-.795-.444-1.082a1.514 1.514 0 0 0-1.073-.449H14.58c.267-.808.547-1.577.83-2.304a42.058 42.058 0 0 1 1.823-3.795c2.971-5.456 5.955-7.987 6.08-8.091a.466.466 0 0 1 .634.082.474.474 0 0 1-.04.643c-.047.038-3.007 2.562-5.883 7.865a41.022 41.022 0 0 0-1.81 3.803l.05.01h.05l.076.011c1.155.169 2.44-.135 3.291-.41.314-.086.619-.2.913-.34l.049-.022a2.87 2.87 0 0 0 .325-.168.49.49 0 0 0 .207-.53l-.103-.419a.625.625 0 0 1 .254-.666.616.616 0 0 1 .232-.095l.435-.083c.227-.062.432-.185.594-.356 1.101-1.496 6.79-9.3 6.195-13.875a.075.075 0 0 0-.022-.042c-.01-.007-.043 0-.043 0-8.564.868-12.289 8.092-13.099 9.531a.693.693 0 0 0-.07.493l.1.434a.628.628 0 0 1-.267.656.614.614 0 0 1-.23.092l-.424.073a.486.486 0 0 0-.4.403 3.163 3.163 0 0 0-.041.37v-.008.055c-.01.326.008.653.056.976.071.786.242 1.56.508 2.301a46.068 46.068 0 0 0-1.253 3.408H6.986c-.403 0-.79.162-1.074.449a1.538 1.538 0 0 0-.445 1.081v1.328a1.536 1.536 0 0 0 1.061 1.457L.727 28.737a2.284 2.284 0 0 0-.69 1.635v7.7c0 .794.313 1.556.87 2.117a2.96 2.96 0 0 0 2.102.877h21.584a2.96 2.96 0 0 0 2.101-.877c.557-.561.87-1.322.87-2.116v-7.698a2.3 2.3 0 0 0-.69-1.636l-5.82-5.653Zm5.56 7.29v1.03a13.278 13.278 0 0 1-13.471.805c-.09-.048-.178-.096-.268-.142a19.258 19.258 0 0 0-.62-.3l-.149-.065a55.127 55.127 0 0 1 1.253-8.53h5.892a1.3 1.3 0 0 1 .906.368l6.06 5.889a1.32 1.32 0 0 1 .396.944Zm-6.06-10.633a.567.567 0 0 1 .567.573v1.327a.574.574 0 0 1-.567.572h-6.968c.216-.859.445-1.683.688-2.472h6.28Zm-14.145.573a.575.575 0 0 1 .568-.573h6.31a48.91 48.91 0 0 0-.58 2.095c-.033.129-.063.257-.094.385H6.975a.567.567 0 0 1-.567-.572l.001-1.335ZM1.39 29.43l6.06-5.888c.243-.236.568-.369.906-.368h4.032c-.6 2.691-1 5.424-1.197 8.175a14.347 14.347 0 0 0-10.2.236v-1.209a1.326 1.326 0 0 1 .398-.946h.001Z"/></g><defs><clipPath id="a"><path fill="#fff" d="M0 0h216v41.196H0z"/></clipPath></defs></svg>