<svg width="95" height="121" viewBox="0 0 95 121" fill="none" xmlns="http://www.w3.org/2000/svg"><ellipse cx="78" cy="16.5" rx="17" ry="16.5" fill="#F54848"/><path d="M15 85h9m14 0h10m13 0h9" stroke="#fff" stroke-width="6" stroke-linecap="round"/><path fill-rule="evenodd" clip-rule="evenodd" d="M0 32c0-12.15 9.85-22 22-22h32.323a4 4 0 0 1 0 8H22c-7.732 0-14 6.268-14 14v67c0 7.732 6.268 14 14 14h42c7.732 0 14-6.268 14-14V40.5a4 4 0 0 1 8 0v40.626A4.005 4.005 0 0 0 85 81h-1a4 4 0 0 0 0 8h1c.345 0 .68-.044 1-.126V99c0 12.15-9.85 22-22 22H22c-12.15 0-22-9.85-22-22V88.874c.32.082.655.126 1 .126h1a4 4 0 0 0 0-8H1c-.345 0-.68.044-1 .126V32Z" fill="#fff"/></svg>